# xmcd CD database file
#
# Track frame offsets:
#	150
#	15605
#	27405
#	41595
#	55462
#	66897
#	81827
#	96127
#	107850
#	120805
#	133107
#	147055
#	159295
#	171197
#
# Disc length: 2397 seconds
#
# Revision: 5
# Processed by: cddbd v1.5.2PL0 Copyright (c) Steve Scherf et al.
# Submitted via: CDex 1.70beta2
#
DISCID=b5095b0e
DTITLE=Sarah Vaughan - The Divine 2
DYEAR=1988
DGENRE=Jazz
TTITLE0=Come Rain Or Come Shine
TTITLE1=Nice Work If You Can Get It
TTITLE2=East Of The Sun (And West Of The Moon)
TTITLE3=Thinking Of You
TTITLE4=Perdido
TTITLE5=I'll Know
TTITLE6=Deep Purple
TTITLE7=My Reverie
TTITLE8=After Hours
TTITLE9=Pinky
TTITLE10=Street Of Dreams
TTITLE11=Spring Will Be A Little Late This Year
TTITLE12=Blues Serenade
TTITLE13=Ooh What Cha Doin' To Me
EXTD=LABEL =CBS Records Inc.\nID =C2K44165\nUPC =07464-44165-2\nCOPYRIGHT =1988 YEAR: 1988
EXTT0=
EXTT1=
EXTT2=
EXTT3=
EXTT4=
EXTT5=
EXTT6=
EXTT7=
EXTT8=
EXTT9=
EXTT10=
EXTT11=
EXTT12=
EXTT13=
PLAYORDER=
